<svg version="1.0" xmlns="http://www.w3.org/2000/svg"
 width="300.000000pt" height="300.000000pt" viewBox="0 0 300.000000 300.000000"
 preserveAspectRatio="xMidYMid meet">
<g transform="translate(0.000000,300.000000) scale(0.100000,-0.100000)"
fill="#FFF" stroke="none">
<path d="M1405 2715 c-16 -7 -25 -14 -20 -14 12 -2 -16 -21 -30 -21 -5 0 -3 5
5 10 8 5 11 10 5 10 -13 0 -43 -20 -30 -20 13 0 -17 -20 -30 -20 -5 0 -3 5 5
10 28 18 4 10 -81 -26 -46 -20 -92 -43 -102 -52 -14 -12 -22 -13 -43 -4 -36
17 -52 15 -73 -10 -11 -13 -74 -86 -141 -163 -108 -125 -128 -154 -188 -275
-76 -152 -80 -163 -56 -135 13 16 15 17 11 3 -4 -12 3 -24 23 -38 17 -12 30
-18 30 -13 0 4 5 1 10 -7 8 -13 10 -12 11 5 1 11 1 28 0 37 -1 9 8 36 20 59
19 39 40 179 26 179 -3 0 -12 -21 -21 -46 -15 -45 -75 -148 -82 -141 -5 5 91
189 99 188 4 -1 16 -1 27 -1 14 0 20 -7 20 -22 0 -19 -2 -20 -10 -8 -7 12 -10
8 -10 -15 l0 -29 22 22 c20 20 21 25 10 56 -25 68 -24 73 17 80 21 3 49 14 63
25 15 12 29 16 38 11 22 -14 37 -1 60 51 30 70 21 80 -23 27 -21 -26 -49 -49
-62 -52 -13 -3 -37 -17 -53 -31 -22 -18 -33 -22 -38 -14 -5 8 -3 9 6 4 9 -6
11 -4 5 5 -6 9 -4 11 5 5 9 -6 11 -4 5 5 -6 9 -4 11 5 5 9 -5 11 -4 6 4 -4 6
-3 10 1 9 11 -3 77 71 139 154 l42 57 0 -67 c0 -37 -4 -122 -10 -189 -9 -94
-9 -135 1 -178 11 -48 10 -57 -3 -71 -14 -13 -16 -13 -16 -1 0 8 -7 28 -15 43
-17 34 -20 78 -4 69 7 -5 9 5 7 26 -2 19 -7 32 -12 31 -5 -2 -13 2 -17 10 -6
9 -9 5 -9 -14 0 -15 -4 -30 -10 -33 -5 -3 1 -29 16 -63 40 -88 40 -89 6 -51
-18 20 -32 45 -32 55 0 11 -9 33 -20 51 -20 33 -10 58 10 26 10 -16 11 -15 6
7 -3 14 -6 28 -6 31 0 9 -48 29 -68 29 -12 0 -13 -3 -5 -8 7 -4 14 -24 16 -44
2 -20 15 -53 28 -74 34 -56 105 -133 116 -125 10 7 63 96 63 106 0 3 -5 3 -12
-1 -7 -4 -8 -3 -4 5 4 6 11 9 16 6 5 -3 25 26 45 65 35 70 36 72 24 131 -7 33
-18 67 -26 75 -8 8 -13 20 -10 27 5 13 -16 62 -47 110 -14 21 -15 27 -5 27 18
0 41 -15 39 -25 -2 -4 14 -27 35 -52 32 -38 41 -44 64 -38 52 13 122 48 132
66 8 16 4 16 -35 -6 -56 -31 -66 -31 -141 6 -33 15 -53 28 -45 28 31 -2 40 1
40 16 0 8 12 17 28 20 15 4 45 11 67 17 22 5 51 10 64 10 24 0 118 47 155 77
16 13 18 13 11 1 -8 -13 -7 -13 8 -1 15 12 17 11 17 -8 0 -12 -5 -29 -11 -39
-8 -13 -7 -27 5 -56 9 -22 14 -41 12 -43 -2 -2 -30 -6 -62 -9 -46 -3 -53 -2
-31 5 16 6 35 7 42 5 19 -8 28 13 15 36 l-11 21 -41 -23 c-23 -13 -46 -30 -51
-39 -12 -19 -1 -68 16 -75 14 -5 112 35 104 43 -3 2 -14 0 -26 -6 -13 -7 -22
-8 -26 -1 -4 7 -13 6 -26 -1 -12 -6 -24 -8 -27 -4 -10 10 21 25 53 25 17 0 47
3 68 6 30 5 35 9 26 20 -7 9 -9 33 -6 61 3 26 1 58 -5 72 -8 23 -5 22 29 -11
21 -21 44 -38 50 -38 6 0 42 -29 79 -64 44 -42 79 -67 100 -71 23 -4 39 -16
54 -40 12 -19 35 -44 51 -56 45 -32 28 -34 -30 -4 -31 15 -55 35 -61 50 -7 19
-25 29 -82 46 -40 13 -86 24 -102 25 -16 1 -32 8 -37 15 -7 11 -12 10 -29 -7
l-21 -21 28 4 c29 5 226 -75 248 -99 7 -8 5 -9 -7 -5 -22 8 -35 -11 -13 -20
10 -3 20 -1 24 6 11 18 110 -36 111 -60 0 -4 -28 2 -61 12 -34 11 -64 17 -67
15 -8 -8 72 -39 108 -41 36 -2 62 -10 93 -26 32 -17 2 25 -36 51 -20 14 -33
30 -30 37 4 11 -37 78 -58 93 -109 80 -139 100 -139 89 0 -5 -5 -7 -10 -4 -6
4 -8 10 -5 15 3 5 -12 21 -35 36 -22 15 -40 29 -40 31 0 5 188 -95 208 -110 7
-5 41 -10 77 -11 62 -1 65 -2 65 -26 0 -14 9 -43 21 -64 11 -21 18 -40 16 -43
-3 -2 -22 11 -43 29 -30 27 -35 29 -25 10 6 -12 9 -28 5 -34 -4 -7 -3 -8 4 -4
6 4 16 -4 23 -16 15 -29 148 -206 160 -214 9 -5 -26 69 -102 219 -22 42 -37
82 -34 87 3 5 1 20 -6 32 -6 13 15 -6 48 -42 37 -40 56 -68 50 -72 -15 -9 -24
-2 -53 44 -14 22 -28 38 -31 35 -6 -7 22 -51 72 -112 22 -27 46 -63 54 -79 8
-19 15 -26 20 -18 4 7 11 4 20 -11 13 -20 13 -21 -2 -8 -24 19 -21 7 9 -39 15
-22 25 -43 22 -45 -2 -3 -24 25 -48 60 -23 36 -45 64 -47 61 -6 -5 88 -156 97
-156 15 0 4 116 -13 136 -9 10 -38 44 -64 74 l-47 55 47 -45 c26 -24 47 -39
47 -34 0 6 -9 19 -20 29 -10 9 -18 21 -17 25 1 4 -29 42 -66 84 -69 76 -136
122 -163 112 -8 -3 -13 -2 -9 3 3 5 -23 18 -57 29 -140 45 -214 65 -226 63 -7
-1 -15 5 -18 14 -17 42 -132 67 -189 40z m-325 -242 c5 -7 10 -24 10 -38 0
-18 -5 -25 -19 -25 -23 0 -40 22 -23 28 15 5 16 38 2 47 -5 3 -10 14 -10 23 1
15 3 14 15 -3 8 -11 19 -25 25 -32z m34 -105 c20 -39 20 -44 -1 -27 -14 12
-16 12 -8 0 5 -9 2 -18 -9 -26 -10 -8 -17 -29 -18 -59 -1 -25 -5 -46 -9 -46
-3 0 -6 6 -6 13 -1 6 -4 38 -8 69 -6 46 -4 63 9 83 22 33 31 32 50 -7z m-72
-208 l-6 -25 -7 25 c-9 34 -10 109 -2 140 10 32 24 -103 15 -140z m78 116 c0
-13 -7 -29 -15 -36 -9 -8 -15 -9 -15 -2 0 6 5 14 11 18 8 5 8 9 -1 14 -7 4 -9
13 -6 19 12 19 26 12 26 -13z m-395 -207 c-14 -30 -25 -64 -25 -76 0 -44 -41
-23 -54 27 -5 15 -4 20 2 12 9 -13 30 5 71 66 33 47 36 34 6 -29z"/>
<path d="M1431 2679 c-13 -10 -20 -19 -16 -19 5 0 1 -8 -7 -17 -16 -20 -37
-55 -22 -38 5 6 24 27 43 47 38 42 39 57 2 27z"/>
<path d="M1530 2639 c0 -33 18 -54 58 -67 l33 -11 -20 27 c-10 15 -31 38 -45
51 l-26 24 0 -24z"/>
<path d="M1195 2603 c-16 -3 -34 -9 -40 -15 -10 -11 30 -7 110 11 l40 9 -40
-1 c-22 0 -53 -2 -70 -4z"/>
<path d="M1135 2561 c-7 -12 55 -25 82 -18 10 3 5 5 -14 6 -17 0 -35 6 -38 11
-8 13 -22 13 -30 1z"/>
<path d="M1290 2485 c-19 -19 -40 -35 -47 -35 -7 0 -13 -11 -13 -24 0 -13 -7
-29 -15 -36 -17 -14 -20 -30 -6 -30 5 0 28 29 51 65 23 36 44 65 45 65 1 0 5
-9 8 -20 3 -11 2 -18 -2 -16 -3 3 -14 -9 -23 -25 -17 -28 -17 -29 5 -29 22 0
22 -1 -2 -19 -14 -10 -31 -17 -38 -14 -7 3 -13 -2 -13 -11 0 -9 -5 -25 -12
-36 -9 -15 -9 -24 1 -43 11 -21 10 -36 -8 -102 -12 -42 -28 -84 -36 -92 -8 -8
-15 -20 -15 -27 0 -6 -9 -18 -20 -26 -11 -8 -20 -22 -20 -31 0 -22 -27 -86
-40 -94 -5 -3 -10 -16 -10 -28 0 -38 -19 -4 -21 40 -3 37 3 48 55 112 31 39
61 71 67 71 6 0 6 8 -1 21 -9 15 -8 24 1 35 8 10 10 34 6 74 -4 33 -3 60 1 60
4 0 13 13 19 30 10 28 10 29 -8 20 -30 -17 -46 -60 -48 -130 l-2 -65 -65 -59
-65 -59 22 -23 c20 -21 20 -24 5 -24 -14 0 -16 -6 -12 -30 3 -16 9 -43 12 -59
3 -16 14 -40 25 -52 11 -13 17 -29 14 -36 -2 -8 -1 -12 4 -9 17 11 29 -40 21
-89 -4 -27 -5 -57 -2 -65 4 -12 2 -13 -9 -2 -17 16 -34 16 -22 0 16 -20 25
-86 13 -93 -5 -3 -8 -18 -4 -33 5 -26 5 -27 -11 -7 -16 19 -17 15 -9 -70 4
-49 8 -112 7 -140 l-1 -49 19 24 c10 14 21 37 24 52 10 43 29 48 21 5 -4 -20
-2 -38 3 -41 5 -4 13 -28 17 -54 6 -43 30 -99 39 -90 3 2 -2 26 -11 53 -36
120 -76 350 -69 400 3 28 6 60 7 72 0 13 4 20 10 17 5 -4 8 40 7 113 -2 131
13 202 60 283 14 25 27 48 27 53 1 4 2 12 3 18 0 5 5 8 9 5 5 -3 22 8 38 25
16 17 45 40 64 52 19 11 39 27 43 34 4 7 13 13 20 13 7 0 6 -4 -3 -11 -12 -8
-10 -9 8 -4 51 15 128 7 190 -18 35 -15 60 -21 55 -14 -4 7 3 1 17 -14 14 -14
40 -36 57 -48 37 -25 78 -91 184 -301 l74 -145 -1 -97 c-1 -54 3 -95 7 -92 5
3 9 40 10 82 1 64 2 72 10 47 13 -40 4 -169 -16 -225 l-15 -45 5 60 c3 43 -4
21 -24 -75 -37 -179 -77 -270 -158 -365 -77 -89 -122 -117 -226 -140 l-77 -17
-53 26 c-63 31 -161 122 -206 193 -19 29 -37 50 -41 48 -3 -2 -29 16 -56 39
-47 41 -50 43 -52 21 -2 -27 39 -126 45 -108 2 6 -3 25 -12 42 -13 26 -13 30
-1 25 8 -3 22 -27 32 -52 9 -26 20 -58 25 -72 5 -14 19 -39 30 -55 l20 -30 -5
30 c-14 83 -17 130 -7 115 6 -8 11 -26 11 -40 0 -15 5 -31 11 -37 5 -5 13 -37
16 -69 4 -32 12 -65 20 -72 7 -7 13 -22 13 -32 0 -27 17 -33 42 -16 28 20 45
20 82 1 16 -9 31 -13 34 -10 3 2 21 -8 41 -23 34 -27 84 -52 99 -52 4 1 -6 8
-23 17 -41 21 -66 44 -59 54 3 5 -1 6 -9 4 -13 -5 -42 19 -49 40 -2 6 -5 9 -8
9 -3 -1 -18 12 -35 29 -16 17 -21 24 -10 15 11 -9 39 -24 63 -33 88 -35 256
21 357 119 31 31 55 62 52 68 -2 7 11 34 29 59 23 31 31 52 27 67 -4 17 -2 21
10 17 16 -7 35 44 19 54 -4 3 -6 17 -2 31 l6 24 15 -22 c9 -12 19 -19 23 -14
5 4 7 0 6 -8 -4 -28 0 -46 16 -66 15 -18 15 -17 8 11 -12 51 -14 95 -4 95 6 0
10 7 10 17 0 15 -1 15 -18 0 -10 -10 -27 -17 -38 -17 -17 1 -16 3 6 23 34 30
82 173 73 218 -5 24 -2 35 12 45 17 13 16 16 -11 70 -16 31 -34 59 -41 61 -7
3 -13 9 -13 14 0 4 8 5 18 2 15 -6 15 -5 3 11 -8 9 -21 14 -29 11 -10 -4 -12
0 -8 11 20 53 18 65 -24 129 -23 36 -44 65 -46 65 -5 0 12 -44 42 -102 15 -30
20 -47 12 -40 -8 6 -30 44 -47 82 -18 39 -36 68 -40 65 -5 -2 -14 8 -20 23
-12 26 -12 26 6 9 30 -26 37 -20 14 12 -12 16 -21 34 -21 40 0 6 -5 11 -10 11
-6 0 -15 12 -21 27 -8 22 -12 24 -19 13 -7 -11 -10 -11 -11 -2 -5 39 -20 62
-53 77 l-31 15 48 -6 47 -5 -34 37 c-27 29 -39 36 -60 32 -14 -3 -26 -1 -26 4
0 5 -25 21 -56 35 -58 26 -84 26 -194 -1 -24 -6 -24 -6 -2 3 36 16 26 19 -25
7 -66 -16 -105 -38 -142 -83 -23 -28 -30 -32 -26 -16 3 12 8 30 10 40 7 35 37
98 55 115 20 19 38 144 23 159 -5 5 -23 -5 -43 -26z m-164 -635 c1 -52 -1 -58
-11 -42 -18 25 -24 88 -7 85 6 -2 12 2 12 7 0 6 1 10 3 10 1 0 3 -27 3 -60z
m246 -943 c-2 -5 16 -30 40 -54 43 -44 43 -58 -1 -24 -13 10 -32 16 -41 14
-12 -3 -19 3 -24 22 -4 17 -12 25 -24 23 -13 -2 -17 4 -15 26 1 16 -4 38 -12
50 -28 39 -15 38 33 -4 26 -23 46 -47 44 -53z"/>
<path d="M1530 2489 c0 -6 9 -13 20 -16 11 -3 20 -9 20 -13 0 -4 9 -10 21 -13
17 -5 14 0 -12 24 -34 31 -49 36 -49 18z"/>
<path d="M1480 2465 c-14 -8 -40 -22 -58 -32 -35 -18 -106 -116 -99 -136 2 -7
15 9 28 35 25 50 116 128 148 128 12 0 10 -5 -9 -20 -14 -11 -28 -20 -32 -20
-5 0 -8 -9 -8 -20 0 -10 -10 -25 -22 -31 -49 -26 -67 -67 -25 -55 12 3 33 6
46 6 23 0 24 1 7 13 -18 13 -18 14 0 22 29 12 54 13 54 2 0 -12 67 -2 86 14
20 16 17 36 -5 42 -14 3 -18 1 -14 -10 9 -22 -15 -32 -48 -20 -23 9 -28 16
-23 32 3 11 12 25 18 30 15 12 10 35 -7 35 -7 0 -23 -7 -37 -15z"/>
<path d="M1611 2476 c11 -9 89 -46 89 -41 0 9 -64 45 -79 45 -8 0 -12 -2 -10
-4z"/>
<path d="M1151 2408 c1 -40 2 -41 9 -13 6 26 8 28 15 11 5 -11 3 -26 -3 -37
-7 -10 -12 -24 -12 -31 1 -7 12 11 26 40 15 29 25 55 23 56 -2 2 -16 6 -31 10
-27 6 -28 5 -27 -36z"/>
<path d="M1616 2384 c-8 -22 1 -34 27 -34 24 0 67 -25 80 -47 6 -9 14 -10 34
-2 36 13 48 7 79 -43 29 -46 54 -69 66 -62 4 3 5 -3 1 -13 -3 -10 -3 -15 2
-11 4 4 14 3 21 -3 9 -7 23 -5 49 6 21 8 44 15 51 15 22 0 16 -30 -8 -41 -13
-5 -34 -16 -48 -24 -22 -13 -26 -13 -37 2 -24 31 -13 3 17 -46 17 -27 29 -53
28 -58 -1 -4 9 -38 22 -75 l24 -67 33 107 c18 59 33 128 33 154 0 46 -2 48
-37 63 -21 9 -59 23 -84 31 -26 9 -61 31 -80 50 -18 19 -38 34 -43 34 -6 0 -4
-6 5 -13 8 -7 27 -29 41 -49 13 -21 28 -35 31 -31 4 3 7 1 7 -6 0 -8 8 -11 20
-8 11 3 23 0 27 -5 4 -8 -8 -9 -38 -4 -24 4 -44 8 -45 9 0 1 -20 28 -44 60
-42 56 -51 61 -99 57 -18 -1 -22 2 -18 13 3 9 -1 21 -9 27 -8 7 -14 9 -14 6 0
-4 -8 -3 -17 2 -39 20 -71 22 -77 6z m449 -256 c3 -7 -7 -49 -23 -93 l-27 -80
-16 32 c-11 22 -13 34 -5 36 7 3 5 11 -7 24 -19 22 -14 35 10 26 13 -5 15 -1
9 21 -5 22 -2 28 16 36 32 12 38 12 43 -2z"/>
<path d="M1917 2304 c4 -12 84 -60 137 -83 5 -2 -6 15 -24 38 -18 22 -35 39
-38 37 -2 -3 -21 2 -42 9 -34 12 -38 12 -33 -1z"/>
<path d="M2170 2300 c0 -4 7 -13 16 -20 8 -8 27 -33 41 -57 13 -24 28 -41 32
-38 5 2 19 -7 31 -20 20 -21 23 -36 23 -92 0 -45 2 -56 6 -34 6 30 8 25 35
-60 16 -52 38 -112 49 -133 l19 -39 -30 24 c-17 13 -42 44 -57 69 -14 25 -23
35 -20 22 4 -12 8 -33 9 -47 3 -27 16 -47 16 -25 0 9 5 7 14 -5 8 -11 12 -26
9 -35 -4 -11 -3 -12 5 -2 7 10 13 7 25 -12 10 -14 17 -29 17 -34 0 -6 10 -12
21 -15 20 -5 21 -11 17 -70 -3 -35 -11 -74 -19 -88 -7 -13 -14 -51 -15 -84 -2
-50 -1 -54 5 -22 12 59 24 57 17 -3 -4 -30 -8 -96 -10 -147 -3 -74 -8 -96 -26
-120 -16 -23 -27 -29 -46 -25 -22 4 -23 8 -18 42 5 29 2 38 -10 43 -13 5 -15
3 -8 -9 5 -9 5 -38 0 -67 -5 -29 -11 -68 -13 -87 -1 -19 -12 -60 -23 -90 -11
-30 -23 -83 -27 -117 -4 -35 -11 -60 -16 -57 -5 3 -9 12 -9 20 0 8 -13 44 -30
79 -16 35 -30 77 -30 94 0 16 -4 31 -10 33 -11 4 -13 57 -4 111 l6 39 -41 -22
c-23 -11 -44 -27 -48 -35 -3 -8 -9 -13 -13 -10 -14 8 -38 -29 -120 -185 -80
-151 -112 -204 -91 -147 15 39 12 48 -4 12 -17 -39 -10 -58 16 -42 10 6 19 15
19 20 0 11 97 147 101 143 2 -3 4 5 5 17 0 12 4 31 8 42 4 11 0 8 -9 -7 -21
-38 -29 -36 -10 2 9 17 20 28 24 25 11 -6 57 53 75 96 l13 31 40 -84 c22 -45
46 -99 53 -118 8 -19 18 -41 23 -48 5 -7 7 -15 4 -18 -5 -6 -146 -64 -153 -64
-3 0 1 10 7 22 11 22 11 22 -7 6 -12 -10 -29 -15 -44 -12 -21 4 -22 3 -5 -4
17 -8 8 -15 -58 -52 -43 -23 -75 -45 -72 -48 3 -3 10 -1 16 5 6 6 19 9 28 6 9
-4 12 -2 8 2 -7 9 79 44 211 87 l63 20 19 -20 c21 -22 17 -34 -8 -25 -10 4
-13 2 -8 -5 6 -11 -58 -47 -77 -43 -4 0 -30 -6 -57 -15 -43 -14 -54 -23 -81
-70 -31 -55 -61 -84 -89 -84 -14 -1 -82 -50 -69 -50 4 0 28 12 53 26 48 27 69
26 46 -1 -10 -12 -9 -16 4 -21 24 -9 28 -1 16 30 -8 21 -7 27 2 24 7 -3 15
-18 19 -35 6 -31 6 -31 -48 -37 -29 -3 -77 -15 -106 -26 -64 -25 -64 -25 -41
2 12 13 13 18 4 13 -11 -6 -10 -3 3 12 9 11 14 22 11 26 -3 3 7 12 23 20 15 8
55 44 88 78 33 35 71 69 85 76 l25 11 -26 1 c-15 1 -32 -5 -38 -12 -6 -8 -28
-22 -48 -31 -48 -22 -104 -90 -154 -186 -21 -41 -48 -83 -60 -93 -44 -36 -34
-7 36 103 23 35 26 44 10 25 -14 -16 -25 -33 -25 -37 0 -4 -6 -5 -14 -2 -16 6
-73 -49 -68 -65 3 -9 10 -7 23 5 10 9 19 12 19 6 0 -6 -5 -14 -11 -18 -6 -3
-9 -15 -6 -25 6 -21 -12 -37 -22 -21 -4 7 -17 13 -29 15 -12 2 -25 6 -28 10
-15 15 -24 6 -13 -12 7 -10 20 -16 29 -14 10 3 21 0 24 -6 5 -8 -13 -11 -56
-10 -35 1 -51 4 -35 6 33 5 36 23 5 23 -13 0 -36 14 -52 30 -16 17 -36 30 -43
30 -23 0 -99 43 -85 48 7 2 21 -3 31 -12 36 -33 33 -14 -4 24 -28 29 -34 40
-22 40 23 0 21 12 -8 46 -17 19 -25 24 -25 13 0 -8 5 -20 11 -26 8 -8 8 -17
-1 -33 -6 -12 -10 -32 -7 -43 2 -12 1 -33 -3 -47 -5 -14 -8 -19 -9 -12 -1 7
-15 12 -34 12 -23 0 -41 8 -58 26 -23 24 -23 26 -5 36 15 8 16 12 5 19 -8 5
-22 6 -31 3 -10 -3 -18 -1 -18 5 0 15 -80 72 -91 65 -5 -3 -9 -1 -9 4 0 6 -8
13 -17 16 -13 5 -11 0 6 -18 13 -14 27 -23 32 -21 11 8 63 -39 58 -53 -5 -14
-171 68 -177 88 -3 8 8 4 27 -9 39 -28 53 -22 16 7 -16 12 -21 22 -13 24 8 3
6 7 -6 11 -10 4 -15 3 -11 -3 4 -6 -7 -10 -25 -10 -23 0 -40 10 -66 36 -19 20
-34 40 -34 45 0 5 -19 32 -43 61 -23 29 -54 71 -69 93 -15 22 -39 56 -54 75
-24 32 -23 32 8 -4 23 -25 38 -35 42 -27 9 13 46 -3 46 -21 0 -7 -4 -7 -14 1
-10 8 -16 9 -21 2 -3 -6 5 -16 19 -23 14 -6 26 -18 26 -26 0 -9 3 -12 7 -9 3
4 17 -9 31 -29 13 -19 25 -34 27 -32 2 2 0 21 -5 42 -9 40 -4 66 11 66 5 0 10
-17 11 -37 0 -21 2 -50 2 -65 1 -15 5 -31 10 -35 8 -8 -1 118 -11 143 -2 7
-23 16 -46 19 -60 10 -118 35 -110 48 3 5 1 7 -4 4 -6 -4 -18 2 -28 13 -10 11
-24 20 -32 20 -18 0 -16 13 8 54 17 29 19 44 13 83 -7 41 -9 45 -15 23 -5 -18
-8 -9 -9 35 l-3 60 -9 -65 c-7 -44 -7 -69 0 -81 7 -11 8 -27 2 -45 l-9 -29 0
30 c-2 82 -23 205 -56 325 l-7 25 17 -23 c9 -13 23 -56 29 -95 l13 -72 5 77
c7 81 2 118 -14 118 -6 0 -23 10 -40 21 -29 21 -30 24 -23 78 8 68 33 162 47
176 7 7 8 1 4 -17 -3 -16 -4 -28 -2 -28 7 0 36 62 36 76 0 7 6 11 14 8 13 -5
13 1 0 42 -8 27 -19 53 -24 58 -6 6 -10 21 -10 35 0 21 -2 23 -10 11 -5 -8
-10 -10 -10 -5 0 6 4 16 9 24 6 10 13 2 26 -27 20 -44 35 -46 35 -7 0 27 -38
68 -57 61 -6 -3 -14 3 -17 12 -3 9 -4 -14 -2 -52 3 -43 1 -64 -5 -55 -6 9 -8
-6 -6 -43 1 -31 -1 -54 -5 -52 -5 3 -8 -14 -8 -38 0 -24 -5 -59 -10 -78 -25
-88 -30 -156 -15 -201 29 -81 54 -193 69 -308 11 -86 20 -121 38 -146 131
-188 242 -334 251 -328 5 3 7 2 4 -3 -3 -6 -3 -15 1 -21 12 -17 211 -115 222
-108 6 4 9 1 8 -7 -2 -7 5 -12 14 -12 10 1 16 -2 13 -5 -5 -9 72 -45 205 -96
64 -25 118 -39 166 -42 69 -5 74 -4 176 45 58 27 115 53 127 57 12 3 19 11 16
16 -3 5 2 6 11 2 12 -4 15 -3 10 5 -4 8 -2 10 8 6 28 -11 92 36 200 145 61 61
107 113 104 116 -3 3 -33 -23 -67 -57 -33 -34 -61 -56 -61 -50 0 17 80 103 90
97 4 -3 13 2 20 10 7 8 16 13 20 10 13 -8 56 50 85 115 15 36 50 109 77 163
27 54 46 103 42 109 -4 7 -3 8 4 4 21 -13 30 31 36 189 3 88 8 176 10 195 19
149 13 242 -13 225 -5 -3 -12 2 -15 11 -3 8 -2 13 3 10 5 -3 -4 25 -19 62 -25
63 -56 161 -80 260 -6 24 -21 53 -33 65 -12 12 -22 25 -22 29 0 10 -16 23 -28
23 -7 0 -12 8 -12 17 0 21 -31 55 -50 55 -8 0 -15 -4 -15 -7z m169 -1272 c-64
-129 -76 -149 -64 -108 8 29 114 230 121 230 2 0 -23 -55 -57 -122z m-1 53
c-18 -33 -34 -58 -36 -56 -8 7 47 115 58 115 6 0 -4 -27 -22 -59z m-235 -353
c-11 -13 -24 -30 -29 -39 -5 -9 -26 -35 -46 -59 -32 -37 -37 -39 -35 -19 2 24
101 139 120 139 6 0 1 -10 -10 -22z m-739 -247 c9 -10 35 -26 56 -36 22 -10
38 -20 36 -22 -2 -3 -22 5 -45 16 -55 29 -64 26 -16 -5 28 -18 33 -23 15 -18
-54 15 -80 34 -80 59 0 30 11 32 34 6z"/>
<path d="M1805 2230 c21 -22 41 -40 43 -40 7 0 -20 33 -47 58 -40 37 -38 25 4
-18z"/>
<path d="M837 2170 c-16 -44 -48 -202 -44 -214 3 -8 1 -60 -5 -117 -7 -75 -7
-109 2 -127 l11 -25 30 36 c17 21 35 34 41 31 6 -4 14 0 19 7 14 23 10 34 -5
14 -12 -17 -13 -14 -10 25 3 43 -8 70 -28 70 -7 0 -7 -4 0 -12 8 -11 10 -53 4
-79 -1 -4 -11 -9 -23 -12 -18 -5 -20 -2 -15 16 3 12 6 41 6 65 0 37 3 42 23
42 12 0 28 4 35 9 10 6 9 10 -7 14 -12 3 -24 1 -27 -4 -10 -16 -21 0 -27 38
-3 21 0 63 8 93 l13 55 1 -52 c1 -29 6 -53 11 -53 6 0 10 -11 10 -25 0 -16 6
-25 15 -25 13 0 14 4 5 21 -17 30 -3 37 18 8 17 -24 24 -99 10 -99 -5 0 -8 -7
-8 -15 0 -8 5 -15 10 -15 6 0 10 -8 11 -17 0 -10 5 -4 10 12 5 17 7 36 4 43
-3 7 1 25 9 40 12 25 11 29 -10 52 -13 13 -24 30 -24 36 0 6 -11 33 -25 59
-14 26 -30 64 -34 84 -5 22 -10 30 -14 21z"/>
<path d="M1833 2166 c4 -5 7 -23 7 -39 0 -15 4 -26 9 -23 5 4 23 -6 40 -20 25
-21 29 -29 21 -44 -8 -15 1 -34 43 -95 32 -48 53 -71 55 -61 2 9 -8 30 -23 47
-17 21 -24 38 -20 53 4 14 3 17 -3 8 -7 -10 -12 -1 -21 32 -8 32 -26 60 -64
99 -28 29 -49 49 -44 43z"/>
<path d="M2107 2086 c6 -78 -4 -114 -49 -178 -18 -27 -18 -28 -1 -28 25 1 56
26 48 40 -4 6 2 20 14 31 21 20 25 31 21 59 -3 22 8 8 33 -41 17 -34 28 -44
46 -44 13 0 29 8 35 18 9 15 7 20 -9 29 -40 22 -101 94 -114 136 -22 67 -30
59 -24 -22z"/>
<path d="M2154 2128 c14 -20 26 -42 26 -48 0 -6 23 -33 50 -60 28 -27 50 -54
50 -60 0 -13 -30 -62 -44 -72 -10 -7 11 -68 24 -68 4 0 16 31 27 69 l20 69
-61 69 c-34 38 -74 85 -89 104 l-29 34 26 -37z"/>
<path d="M774 2103 c-35 -55 -57 -104 -50 -110 2 -2 22 32 44 76 23 45 40 81
38 81 -1 0 -16 -21 -32 -47z"/>
<path d="M2275 2140 c-3 -5 -3 -27 0 -47 5 -35 4 -36 -6 -10 -6 15 -17 27 -25
27 -8 0 -14 -2 -14 -4 0 -5 51 -96 54 -96 1 0 3 23 4 50 0 28 4 60 7 70 6 20
-9 28 -20 10z"/>
<path d="M982 1988 c2 -23 -9 -70 -38 -157 -12 -37 -12 -42 0 -32 12 10 20 9
41 -5 14 -9 24 -23 21 -30 -3 -8 0 -14 5 -14 7 0 9 11 5 28 -19 85 -25 142
-20 185 5 33 3 47 -5 47 -7 0 -11 -10 -9 -22z"/>
<path d="M2166 1915 c5 -36 4 -38 -9 -22 -8 9 -19 17 -25 17 -16 0 -24 -33
-10 -42 7 -5 39 -25 71 -45 31 -20 57 -38 57 -40 0 -2 -18 -26 -40 -54 -45
-58 -53 -85 -14 -48 l26 24 -6 -45 c-7 -42 -6 -44 9 -25 9 11 14 30 12 43 -5
26 8 39 20 20 4 -7 11 -40 15 -73 3 -33 10 -71 14 -85 l8 -25 -40 30 c-21 16
-40 33 -42 37 -2 4 -9 8 -15 8 -6 0 0 -11 13 -25 13 -14 20 -25 16 -25 -5 0
-3 -7 4 -15 9 -11 9 -15 1 -15 -7 0 -9 -5 -5 -11 5 -8 9 -8 14 1 6 10 16 7 41
-9 31 -20 32 -21 10 -2 -36 32 -10 25 30 -8 l36 -30 0 29 c0 16 -5 27 -10 23
-5 -3 -6 8 -2 28 5 27 4 31 -5 19 -9 -12 -10 -9 -6 15 6 30 6 30 -8 6 -13 -24
-14 -24 -25 -3 -6 11 -11 33 -10 49 1 28 1 28 14 -7 19 -48 18 -29 -1 38 -27
96 -47 143 -96 226 -45 76 -47 78 -42 41z"/>
<path d="M735 1890 c-9 -27 -21 -52 -26 -55 -5 -4 -9 -14 -9 -23 0 -23 46 59
55 97 10 48 -2 36 -20 -19z"/>
<path d="M2056 1793 c14 -38 39 -96 55 -131 17 -34 28 -68 25 -75 -3 -7 -8 -2
-11 11 -4 12 -11 22 -16 22 -14 0 -11 -22 5 -39 9 -9 24 -74 35 -146 26 -162
38 -221 50 -243 8 -14 11 -10 11 18 1 19 4 29 7 23 2 -7 13 -13 24 -13 22 0
23 -3 5 -53 -10 -30 -15 -35 -20 -22 -12 31 -31 -1 -34 -55 -1 -37 2 -52 13
-56 9 -4 15 -20 15 -43 0 -54 16 -71 23 -24 4 21 7 47 6 58 0 20 0 20 -9 0 -7
-16 -9 -11 -9 22 -1 23 2 50 6 60 6 14 9 11 15 -17 l6 -35 -1 37 c-1 20 2 40
6 44 11 11 8 70 -5 99 -8 17 -17 24 -29 20 -11 -4 -23 2 -33 16 -23 34 -3 53
47 45 29 -5 38 -3 35 6 -3 7 -16 13 -29 14 -13 1 -36 7 -51 14 -23 11 -26 18
-25 53 1 22 8 42 15 45 6 2 12 -2 12 -10 1 -7 16 -31 36 -53 l35 -40 -26 69
c-14 39 -27 70 -28 71 -1 0 -10 6 -19 13 -14 12 -16 10 -11 -9 5 -16 3 -20 -6
-14 -8 4 -11 18 -8 34 3 14 -1 37 -8 51 -20 35 -18 49 5 43 14 -4 20 0 20 11
0 11 -9 16 -30 16 -28 0 -30 2 -20 21 21 39 -21 179 -54 179 -7 0 -19 7 -26
15 -27 32 -28 12 -4 -52z"/>
<path d="M2013 1810 c-1 -22 2 -40 8 -40 11 0 12 50 1 67 -5 7 -8 -4 -9 -27z"/>
<path d="M2110 1845 c0 -6 13 -26 28 -44 25 -31 31 -33 58 -24 l29 10 -25 8
c-14 4 -35 17 -47 28 -13 11 -23 16 -23 11 0 -5 -5 -2 -10 6 -5 8 -10 10 -10
5z"/>
<path d="M2303 1795 c3 -33 16 -94 30 -135 l25 -75 1 71 c1 78 -20 164 -46
185 -15 13 -16 9 -10 -46z"/>
<path d="M958 1775 c6 -12 8 -48 5 -80 -4 -47 0 -73 17 -120 13 -33 22 -79 22
-103 -1 -29 3 -42 11 -39 23 7 28 78 13 190 -13 102 -17 112 -46 141 -22 21
-29 25 -22 11z"/>
<path d="M915 1750 c-14 -28 -48 -55 -70 -55 -24 -1 -57 -34 -53 -55 l3 -21
22 20 c12 12 20 27 18 34 -4 8 6 12 30 13 37 1 45 -9 20 -24 -14 -7 -14 -12 0
-45 8 -20 15 -46 15 -58 0 -21 -1 -22 -20 -4 -11 10 -20 31 -20 47 0 29 -13
35 -40 18 -15 -9 -7 -21 50 -81 8 -8 39 -45 69 -82 30 -37 56 -66 58 -64 1 2
-2 17 -7 33 -22 70 -50 224 -52 287 -1 37 -3 67 -5 67 -1 0 -9 -13 -18 -30z
m15 -139 l0 -26 -15 29 c-19 36 -19 52 0 36 8 -7 15 -24 15 -39z"/>
<path d="M2055 1724 c13 -44 33 -79 22 -39 -3 11 -8 35 -12 53 -4 17 -11 32
-15 32 -5 0 -3 -21 5 -46z"/>
<path d="M662 1718 c-6 -13 -21 -39 -33 -58 l-21 -35 22 25 c12 14 18 19 14
11 -4 -8 -8 -26 -9 -40 -4 -50 -5 -53 -19 -48 -9 3 -21 -4 -30 -19 -23 -33 -3
-31 56 6 32 20 46 35 42 44 -3 8 1 24 9 36 l14 21 6 -21 c3 -11 10 -20 16 -20
6 0 3 17 -8 43 -11 23 -22 50 -25 60 -7 23 -21 21 -34 -5z"/>
<path d="M2400 1700 c6 -11 15 -20 20 -20 6 0 10 9 10 20 0 13 -7 20 -20 20
-18 0 -19 -3 -10 -20z"/>
<path d="M2397 1615 c-9 -20 -17 -43 -16 -53 0 -9 9 5 20 32 23 57 20 72 -4
21z"/>
<path d="M1044 1627 c3 -10 6 -30 6 -43 0 -14 4 -22 10 -19 15 9 12 39 -6 61
-14 17 -15 17 -10 1z"/>
<path d="M780 1521 c0 -49 4 -92 9 -95 5 -3 11 -18 13 -33 3 -16 9 -37 13 -47
7 -15 5 -18 -7 -14 -13 5 -13 -1 -6 -45 4 -29 6 -62 3 -73 -5 -25 59 -222 80
-243 12 -12 15 -4 21 50 5 35 8 79 7 97 0 29 1 31 16 19 32 -28 36 -26 32 21
-3 46 -17 76 -30 68 -3 -2 -15 16 -26 40 -23 51 -38 59 -24 12 11 -41 12 -286
1 -272 -5 5 -15 24 -22 43 -11 26 -11 36 -2 39 7 2 12 13 12 25 0 18 -2 20
-11 7 -8 -12 -10 -10 -5 10 2 14 8 42 12 64 l7 38 -27 -17 -26 -17 0 46 c0 43
2 46 19 36 31 -16 33 -12 14 23 -10 17 -18 39 -19 47 -2 8 -5 36 -8 63 -3 26
-10 56 -16 66 -14 28 -13 51 4 45 8 -3 21 -25 30 -49 10 -24 33 -61 52 -82 19
-20 42 -54 52 -75 9 -21 21 -38 25 -38 5 0 5 5 2 10 -3 6 -3 10 0 10 3 0 13
-16 21 -35 8 -20 26 -41 39 -47 14 -6 25 -14 25 -17 0 -3 -22 -40 -49 -81 -45
-68 -48 -77 -37 -100 7 -14 16 -37 20 -52 3 -16 13 -28 20 -28 11 0 10 8 -5
40 -20 40 -26 95 -10 85 5 -3 12 4 16 14 6 19 7 19 24 2 10 -10 24 -27 30 -37
6 -11 11 -13 11 -6 0 6 4 12 9 12 4 0 13 -33 18 -72 9 -65 10 -68 12 -28 l2
45 12 -35 c7 -19 15 -34 20 -32 4 1 20 -9 35 -23 15 -14 31 -25 35 -25 9 0 -8
30 -85 149 -33 52 -50 89 -54 123 -4 27 -11 51 -15 54 -5 3 -7 10 -4 15 8 12
-66 100 -78 92 -6 -3 -7 -1 -3 5 4 6 -16 40 -44 76 -49 63 -61 84 -38 70 7 -4
8 -3 4 5 -4 6 -11 9 -16 6 -8 -5 -35 34 -32 45 1 3 -2 5 -7 5 -11 0 -51 49
-51 63 0 6 -4 14 -10 17 -6 4 -10 -26 -10 -84z m297 -447 c-9 -9 -37 27 -37
49 0 19 3 18 21 -11 12 -18 19 -35 16 -38z"/>
<path d="M727 1573 c-3 -16 0 -31 6 -35 16 -10 -4 -62 -25 -66 -10 -2 -21 8
-29 27 -11 24 -17 28 -31 20 -24 -13 -23 -35 2 -42 23 -6 37 -37 46 -107 4
-27 10 -50 13 -50 4 0 7 -12 8 -27 1 -30 48 -151 66 -168 7 -7 7 -4 2 10 -4
11 -14 46 -21 78 -7 32 -17 64 -23 71 -7 8 -18 48 -25 90 -11 61 -11 76 0 76
12 0 34 -79 34 -125 0 -14 4 -25 9 -25 5 0 4 21 -1 48 -5 26 -8 70 -8 97 3
101 0 155 -9 155 -5 0 -11 -12 -14 -27z"/>
<path d="M2385 1504 c-14 -36 -15 -54 -7 -80 9 -30 8 -48 -13 -159 -5 -27 -4
-28 8 -11 8 11 19 16 25 12 8 -5 12 1 12 16 0 16 -3 19 -9 10 -7 -11 -10 -10
-15 3 -9 23 -8 27 5 19 9 -5 10 4 6 32 -6 35 -5 36 5 14 11 -24 12 -24 15 -3
2 12 -3 44 -11 72 -11 39 -12 58 -4 82 17 49 2 44 -17 -7z"/>
<path d="M2066 1444 c-20 -100 -28 -234 -14 -234 4 0 4 -8 1 -17 -6 -16 -5
-17 11 -3 11 8 14 16 7 18 -16 5 -14 22 3 22 8 0 16 7 20 15 3 8 1 15 -4 15
-6 0 -10 -4 -10 -10 0 -5 -4 -10 -9 -10 -4 0 -6 12 -3 26 2 14 0 29 -6 33 -15
9 4 130 23 150 11 11 13 2 14 -48 0 -33 -4 -63 -9 -66 -16 -10 -12 -45 5 -45
37 0 43 100 10 175 -8 17 -15 41 -17 54 -2 13 -12 -20 -22 -75z"/>
<path d="M2274 1378 c19 -60 22 -64 33 -44 7 11 10 30 7 41 -4 16 -3 17 5 5 6
-8 8 -24 5 -35 -4 -18 -4 -18 6 -2 6 9 9 25 6 35 -3 9 -1 24 5 32 9 12 10 11
4 -5 -4 -14 -3 -17 5 -9 6 6 8 18 4 28 -6 15 -11 13 -40 -15 -23 -22 -34 -28
-34 -18 0 8 -6 24 -14 34 -8 11 -5 -7 8 -47z"/>
<path d="M980 1368 c58 -76 66 -83 75 -68 8 13 -14 120 -24 120 -17 0 -20 -14
-7 -39 7 -14 16 -39 20 -56 l7 -30 -28 35 c-57 71 -93 103 -43 38z"/>
<path d="M674 1345 c8 -51 34 -132 51 -162 15 -27 16 -27 11 -3 -8 40 -68 198
-62 165z"/>
<path d="M2257 1293 c-11 -10 -8 -28 7 -48 12 -17 14 -16 18 18 4 35 -7 48
-25 30z"/>
<path d="M2125 1274 c-20 -20 -16 -25 13 -17 12 3 22 12 22 19 0 19 -15 18
-35 -2z"/>
<path d="M1110 1260 c-12 -7 -10 -13 9 -34 30 -32 35 -28 18 12 -9 23 -16 29
-27 22z"/>
<path d="M1981 1188 c0 -11 -9 -18 -22 -18 -19 0 -19 -1 -4 -16 21 -21 38 -6
32 27 -3 15 -5 17 -6 7z"/>
<path d="M1938 1065 c-38 -35 -63 -69 -73 -97 -17 -49 -20 -98 -5 -98 6 0 10
7 10 15 0 31 59 147 71 139 8 -4 9 -3 5 5 -4 6 6 29 24 51 17 22 30 40 28 40
-1 -1 -29 -25 -60 -55z"/>
<path d="M764 1085 c-3 -14 -10 -23 -14 -20 -10 6 -35 -23 -27 -32 4 -3 12 -1
19 5 9 7 18 7 31 -2 18 -14 24 -32 7 -21 -5 3 -10 2 -10 -3 0 -13 27 -23 45
-16 8 4 17 -1 21 -9 3 -9 12 -18 20 -21 19 -7 18 -3 -10 27 -13 14 -33 46 -46
71 -12 25 -24 46 -26 46 -2 0 -6 -11 -10 -25z"/>
<path d="M2064 1075 c-17 -22 -39 -52 -49 -68 -15 -24 -16 -27 -1 -21 21 8 20
-4 -4 -43 -20 -34 -39 -43 -41 -20 0 6 -5 1 -10 -13 -6 -14 -9 -27 -9 -28 1
-2 -11 -17 -26 -33 -15 -16 -24 -29 -19 -29 4 0 0 -10 -11 -22 -12 -13 -13
-18 -4 -13 17 10 37 35 40 50 3 17 31 44 81 76 45 29 49 34 49 71 0 24 8 51
21 69 11 16 19 37 17 46 -2 13 -11 7 -34 -22z"/>
<path d="M1017 1066 c-11 -27 -8 -56 4 -56 6 0 9 -6 6 -14 -6 -16 11 -36 30
-36 7 0 13 11 13 25 0 17 -6 25 -17 25 -15 0 -16 2 -3 10 13 8 12 10 -3 10
-10 0 -16 3 -14 8 3 4 1 16 -3 26 -6 18 -7 18 -13 2z"/>
<path d="M939 989 c-9 -17 -8 -25 5 -37 15 -15 16 -13 16 21 0 42 -5 46 -21
16z"/>
<path d="M1830 953 c-14 -9 -27 -18 -29 -19 -2 -2 -1 -10 2 -18 8 -20 37 -9
37 13 0 9 5 22 12 29 17 17 7 15 -22 -5z"/>
<path d="M905 922 c3 -15 9 -42 12 -59 3 -18 9 -33 13 -33 4 0 5 11 3 24 -3
13 1 27 7 31 9 6 6 13 -11 27 l-24 19 25 -12 c31 -15 79 -50 148 -107 29 -25
55 -42 58 -40 9 10 -9 90 -25 110 -15 17 -20 19 -37 8 -16 -10 -26 -8 -59 10
-22 13 -57 29 -79 36 l-38 14 7 -28z m179 -78 c31 -30 10 -34 -25 -4 -19 15
-21 19 -7 20 9 0 24 -7 32 -16z"/>
<path d="M1139 890 c-7 -5 -11 -11 -9 -13 15 -15 142 -78 146 -74 9 9 -30 56
-46 57 -8 0 -29 9 -46 19 -20 12 -36 16 -45 11z"/>
<path d="M2035 893 c-44 -10 -50 -13 -36 -23 15 -8 67 6 77 21 5 9 -6 10 -41
2z"/>
<path d="M947 884 c-5 -9 11 -47 60 -139 21 -41 64 -85 81 -85 11 0 10 5 -5
18 -11 9 -26 35 -33 57 -7 22 -19 47 -27 57 -8 9 -15 22 -17 30 -3 22 -17 39
-27 33 -5 -4 -13 4 -17 16 -5 12 -11 18 -15 13z"/>
<path d="M1700 878 c-19 -5 -47 -21 -63 -34 -16 -13 -33 -24 -38 -24 -5 0 -9
-4 -9 -10 0 -5 7 -10 16 -10 14 0 14 -3 4 -15 -11 -13 -7 -15 26 -14 24 1 30
3 16 6 -18 4 -22 9 -16 26 3 12 12 29 20 37 12 12 14 10 14 -18 0 -27 4 -32
24 -32 15 0 33 11 45 27 12 14 23 24 24 22 2 -2 13 -21 25 -42 25 -43 27 -41
-69 -61 -37 -8 -75 -19 -85 -25 -34 -19 30 -13 98 10 81 27 97 42 76 66 -9 10
-25 37 -37 61 -12 23 -25 42 -29 41 -4 0 -23 -5 -42 -11z"/>
<path d="M1548 845 c-3 -3 -22 -6 -42 -7 -25 -1 -33 -5 -27 -11 17 -17 63 -15
106 4 l40 18 -36 0 c-20 1 -38 -1 -41 -4z"/>
<path d="M913 807 c4 -10 7 -32 7 -49 0 -19 4 -28 13 -25 16 5 9 56 -11 76
-14 15 -15 14 -9 -2z"/>
<path d="M1042 785 c13 -19 33 -38 46 -41 15 -4 22 -14 22 -29 0 -18 4 -22 19
-18 14 3 24 -3 35 -24 8 -15 15 -24 16 -19 1 27 -51 92 -102 127 l-59 40 23
-36z"/>
<path d="M1351 786 c37 -21 199 -76 223 -76 29 1 -25 24 -106 45 -86 23 -91
25 -87 29 2 3 23 1 47 -4 31 -5 40 -4 33 3 -6 6 -39 12 -73 14 -60 4 -62 3
-37 -11z"/>
<path d="M2031 791 c-8 -5 14 -7 55 -4 38 3 71 7 73 9 9 8 -115 3 -128 -5z"/>
<path d="M1171 767 l-30 -7 70 -101 c38 -55 66 -106 62 -112 -3 -7 -3 -9 2 -5
4 4 14 3 21 -3 9 -8 10 -2 2 28 -5 21 -12 50 -15 66 -4 22 -10 27 -31 25 -15
-2 -27 3 -30 12 -5 13 -3 13 11 1 20 -16 22 -11 31 60 l5 45 -34 0 c-19 -1
-47 -4 -64 -9z m69 -54 c0 -18 -8 -16 -36 6 -16 13 -20 21 -12 24 17 5 48 -14
48 -30z"/>
<path d="M1310 721 c0 -31 5 -53 15 -61 13 -11 14 -6 9 34 -7 49 -1 56 27 30
19 -17 44 -10 33 9 -4 7 -3 8 2 4 5 -5 9 -14 9 -20 0 -7 13 -14 30 -17 19 -3
31 -12 34 -25 3 -16 1 -17 -12 -7 -10 9 -17 10 -22 2 -9 -15 4 -30 27 -30 12
0 37 -5 55 -12 25 -9 32 -16 27 -30 -3 -11 0 -18 9 -18 22 0 26 10 17 36 -5
13 -6 25 -2 28 12 7 45 -22 37 -33 -3 -6 -1 -11 5 -11 7 0 21 -11 31 -25 19
-23 49 -25 49 -3 0 5 -4 7 -9 3 -6 -3 -22 15 -36 40 -15 25 -32 45 -38 45 -7
0 -7 4 2 13 10 10 16 7 33 -13 l20 -25 -14 24 c-11 19 -24 25 -54 27 -21 1
-77 16 -123 33 -47 17 -86 29 -89 26 -2 -2 -11 2 -19 10 -8 8 -23 15 -34 15
-16 0 -19 -7 -19 -49z m226 -55 c10 -8 16 -17 12 -21 -11 -11 -48 5 -48 21 0
18 11 18 36 0z"/>
<path d="M1830 730 c-8 -5 -18 -6 -24 -3 -5 3 -6 1 -3 -4 4 -6 -2 -18 -13 -28
-11 -10 -20 -25 -20 -33 0 -7 -9 -27 -21 -43 -38 -53 -12 -30 46 42 55 68 65
88 35 69z"/>
<path d="M1743 707 c-39 -15 -58 -32 -23 -22 30 9 79 34 65 34 -5 0 -24 -6
-42 -12z"/>
<path d="M1370 657 c0 -13 21 -36 48 -51 26 -15 11 24 -18 44 -22 16 -30 18
-30 7z"/>
<path d="M1461 607 c-12 -15 -5 -27 17 -27 8 0 12 6 9 14 -3 8 -1 17 6 20 7 2
5 5 -4 5 -9 1 -22 -5 -28 -12z"/>
<path d="M1580 538 c0 -12 32 -26 51 -21 30 8 22 20 -16 25 -19 2 -35 1 -35
-4z"/>
</g>
</svg>
